<svg width="50" height="53" viewBox="0 0 50 53" fill="none" xmlns="http://www.w3.org/2000/svg">
<g clip-path="url(#clip0_1_471)">
<rect width="50" height="53" fill="url(#paint0_linear_1_471)"/>
<path d="M45.2361 23.1433L40.5833 21.6711C40.2616 20.4805 39.8192 19.3304 39.2639 18.2408L41.5417 13.7211C41.6271 13.5505 41.6584 13.3552 41.6309 13.1643C41.6034 12.9733 41.5185 12.7969 41.3889 12.6611L38.0694 9.12778C37.9414 8.99038 37.7749 8.90041 37.5947 8.87124C37.4146 8.84206 37.2304 8.87524 37.0694 8.96584L32.8333 11.3656C31.7953 10.7482 30.696 10.2545 29.5556 9.89333L28.1667 5.02028C28.1079 4.84069 27.9969 4.68549 27.8497 4.57703C27.7024 4.46856 27.5265 4.41241 27.3472 4.41667H22.6528C22.4724 4.41756 22.297 4.47944 22.1521 4.5933C22.0073 4.70716 21.9004 4.86706 21.8472 5.04972L20.4583 9.90806C19.3084 10.2672 18.1997 10.761 17.1528 11.3803L12.9861 8.99528C12.8252 8.90468 12.6409 8.87151 12.4608 8.90068C12.2807 8.92986 12.1142 9.01982 11.9861 9.15722L8.61111 12.6464C8.48148 12.7822 8.39661 12.9586 8.36909 13.1496C8.34157 13.3405 8.37287 13.5358 8.45833 13.7064L10.7083 18.1231C10.1251 19.2281 9.65927 20.3983 9.31944 21.6122L4.72222 23.0844C4.54989 23.1409 4.39904 23.2541 4.29163 23.4077C4.18421 23.5613 4.12584 23.7472 4.125 23.9383V28.9144C4.12584 29.1056 4.18421 29.2915 4.29163 29.4451C4.39904 29.5987 4.54989 29.7119 4.72222 29.7683L9.34722 31.2406C9.69076 32.4343 10.1565 33.5845 10.7361 34.6708L8.45833 39.2936C8.37287 39.4642 8.34157 39.6595 8.36909 39.8504C8.39661 40.0414 8.48148 40.2178 8.61111 40.3536L11.9306 43.8722C12.0586 44.0096 12.2251 44.0996 12.4053 44.1288C12.5854 44.1579 12.7696 44.1248 12.9306 44.0342L17.2222 41.605C18.2375 42.1857 19.3084 42.6496 20.4167 42.9889L21.8056 47.9503C21.8588 48.1329 21.9656 48.2929 22.1105 48.4067C22.2554 48.5206 22.4308 48.5824 22.6111 48.5833H27.3056C27.4859 48.5824 27.6613 48.5206 27.8062 48.4067C27.9511 48.2929 28.0579 48.1329 28.1111 47.9503L29.5 42.9742C30.5988 42.6331 31.6604 42.1692 32.6667 41.5903L36.9861 44.0342C37.1471 44.1248 37.3313 44.1579 37.5114 44.1288C37.6916 44.0996 37.858 44.0096 37.9861 43.8722L41.3056 40.3536C41.4352 40.2178 41.5201 40.0414 41.5476 39.8504C41.5751 39.6595 41.5438 39.4642 41.4583 39.2936L39.1528 34.7297C39.7047 33.659 40.147 32.5288 40.4722 31.3583L45.1528 29.8861C45.3251 29.8297 45.476 29.7165 45.5834 29.5629C45.6908 29.4093 45.7492 29.2234 45.75 29.0322V24.0119C45.7582 23.8289 45.7133 23.6475 45.6215 23.4923C45.5296 23.337 45.3951 23.2152 45.2361 23.1433ZM25 34.5972C23.4892 34.5972 22.0123 34.1223 20.7561 33.2326C19.4999 32.3429 18.5208 31.0782 17.9426 29.5987C17.3644 28.1191 17.2131 26.491 17.5079 24.9203C17.8026 23.3496 18.5302 21.9068 19.5985 20.7744C20.6668 19.642 22.0279 18.8708 23.5097 18.5584C24.9915 18.2459 26.5275 18.4063 27.9233 19.0191C29.3191 19.632 30.5121 20.6698 31.3515 22.0014C32.1909 23.333 32.6389 24.8985 32.6389 26.5C32.6389 28.6475 31.8341 30.7071 30.4015 32.2256C28.9689 33.7441 27.026 34.5972 25 34.5972Z" fill="#04011F"/>
</g>
<defs>
<linearGradient id="paint0_linear_1_471" x1="25" y1="0" x2="25" y2="53" gradientUnits="userSpaceOnUse">
<stop stop-color="white"/>
<stop offset="1" stop-color="white" stop-opacity="0"/>
</linearGradient>
<clipPath id="clip0_1_471">
<rect width="50" height="53" fill="white"/>
</clipPath>
</defs>
</svg>
