<svg width="43" height="47" viewBox="0 0 43 47" fill="none" xmlns="http://www.w3.org/2000/svg">
<g clip-path="url(#clip0_1_749)">
<path d="M43.0002 19.2691C38.7746 19.2787 34.6526 18.0184 31.2165 15.6661V32.072C31.2153 35.1105 30.2442 38.0764 28.4331 40.5728C26.6219 43.0693 24.057 44.9774 21.0813 46.0421C18.1057 47.1068 14.861 47.2773 11.7813 46.5307C8.70163 45.7842 5.93362 44.1562 3.84745 41.8645C1.76127 39.5727 0.456367 36.7265 0.107211 33.7064C-0.241944 30.6862 0.381295 27.6361 1.89359 24.9638C3.40589 22.2916 5.73516 20.1246 8.56995 18.7526C11.4047 17.3806 14.6099 16.869 17.7569 17.2863V25.5379C16.3169 25.1047 14.7705 25.1177 13.3386 25.5752C11.9068 26.0326 10.6627 26.9111 9.78396 28.0851C8.90527 29.2592 8.43693 30.6687 8.44582 32.1125C8.45471 33.5563 8.94038 34.9604 9.83348 36.1245C10.7266 37.2885 11.9814 38.1529 13.4188 38.5942C14.8562 39.0355 16.4026 39.0312 17.8373 38.5817C19.2719 38.1323 20.5214 37.2609 21.4072 36.0918C22.2931 34.9227 22.7701 33.5158 22.7701 32.072V0H31.2165C31.2106 0.682179 31.2704 1.36343 31.395 2.03514C31.6885 3.53462 32.2988 4.96108 33.1885 6.22726C34.0782 7.49343 35.2286 8.57271 36.5694 9.39908C38.477 10.6054 40.7134 11.2483 43.0002 11.2479V19.2691Z" fill="white"/>
</g>
<defs>
<clipPath id="clip0_1_749">
<rect width="43" height="47" fill="white"/>
</clipPath>
</defs>
</svg>
