<svg width="45" height="47" viewBox="0 0 45 47" fill="none" xmlns="http://www.w3.org/2000/svg">
<g clip-path="url(#clip0_1_745)">
<rect width="45" height="47" fill="white" fill-opacity="0.19"/>
<path d="M30.0025 23.5C30.0024 21.6881 29.4009 19.9322 28.3003 18.5316C27.1997 17.131 25.6682 16.1723 23.9668 15.8188C22.2653 15.4653 20.4991 15.7388 18.9691 16.5929C17.4391 17.447 16.2399 18.8287 15.576 20.5027C14.912 22.1766 14.8243 24.0393 15.3277 25.7732C15.8312 27.5071 16.8947 29.0051 18.337 30.0119C19.7794 31.0187 21.5113 31.4721 23.2378 31.2947C24.9643 31.1173 26.5785 30.3202 27.8054 29.0392C28.5017 28.3361 29.0552 27.4936 29.4327 26.5621C29.8102 25.6305 30.004 24.629 30.0025 23.6175L30.0006 23.4941L30.0025 23.5ZM34.0518 23.5C34.0428 26.2773 33.1127 28.9656 31.4196 31.1073C29.7266 33.2491 27.3753 34.7119 24.7659 35.2468C22.1565 35.7817 19.4503 35.3558 17.1077 34.0414C14.7652 32.727 12.9311 30.6054 11.9176 28.0377C10.9041 25.4699 10.7738 22.6147 11.5489 19.958C12.324 17.3012 13.9566 15.0071 16.1688 13.4659C18.3811 11.9248 21.0363 11.232 23.6825 11.5053C26.3288 11.7786 28.8026 13.0012 30.683 14.965C31.7509 16.0473 32.5995 17.3426 33.1785 18.7742C33.7576 20.2057 34.0552 21.7443 34.0537 23.2983L34.0518 23.5117V23.5ZM37.2144 10.957V10.9609C37.2146 11.6132 36.9983 12.2455 36.6022 12.7498C36.2061 13.2542 35.6549 13.5996 35.0423 13.727C34.4298 13.8545 33.7939 13.7562 33.243 13.4488C32.6921 13.1415 32.2603 12.6441 32.0211 12.0415C31.7819 11.4389 31.7502 10.7684 31.9314 10.1441C32.1125 9.5198 32.4953 8.98043 33.0145 8.61788C33.5337 8.25533 34.1572 8.09204 34.7788 8.15582C35.4004 8.2196 35.9816 8.50651 36.4233 8.96767C36.9032 9.45913 37.2013 10.1444 37.2013 10.9022V10.959L37.2144 10.957ZM22.5169 4.22146L20.2766 4.2058C18.9193 4.19536 17.8889 4.19536 17.1853 4.2058C16.4816 4.21624 15.5393 4.24692 14.3582 4.29783C13.2615 4.33699 12.2211 4.45055 11.2031 4.63069L11.34 4.61111C10.5432 4.74817 9.83649 4.94397 9.15972 5.20438L9.24034 5.17697C8.28426 5.57839 7.41481 6.1757 6.68329 6.93368C5.95177 7.69167 5.37297 8.59497 4.98104 9.59032L4.9623 9.64318C4.72167 10.3311 4.54342 11.041 4.42989 11.7637L4.42051 11.8362C4.25377 12.865 4.15418 13.9045 4.12244 14.9474L4.12056 14.9885C4.07182 16.2234 4.04245 17.2076 4.03245 17.9412C4.02245 18.6748 4.02245 19.7511 4.03245 21.17C4.04245 22.5889 4.04745 23.3688 4.04745 23.5098C4.04745 23.6508 4.04245 24.4307 4.03245 25.8496C4.02245 27.2685 4.02245 28.3448 4.03245 29.0784C4.04245 29.812 4.07182 30.7962 4.12056 32.031C4.15806 33.1765 4.26679 34.2632 4.43926 35.3264L4.42051 35.1834C4.55174 36.0156 4.73921 36.7537 4.98854 37.4606L4.9623 37.3764C5.34663 38.375 5.91853 39.2831 6.64426 40.0471C7.36999 40.8111 8.23485 41.4156 9.18784 41.825L9.23846 41.8446C9.83461 42.0776 10.5414 42.2734 11.2687 42.4006L11.3381 42.4104C12.2173 42.571 13.2578 42.6846 14.3151 42.7218L14.3545 42.7237C15.5368 42.7746 16.4791 42.8053 17.1815 42.8157C17.8839 42.8262 18.9143 42.8262 20.2729 42.8157L22.5 42.7687L24.7403 42.7844C26.0975 42.7949 27.128 42.7949 27.8316 42.7844C28.5352 42.774 29.4776 42.7433 30.6586 42.6924C31.7553 42.6532 32.7958 42.5397 33.8137 42.3595L33.6769 42.3791C34.4736 42.242 35.1804 42.0462 35.8571 41.7858L35.7765 41.8132C36.7326 41.4118 37.6021 40.8145 38.3336 40.0565C39.0651 39.2985 39.6439 38.3952 40.0358 37.3999L40.0546 37.347C40.2777 36.7244 40.4651 35.9862 40.587 35.2265L40.5964 35.1541C40.7501 34.2358 40.8588 33.1491 40.8944 32.0447L40.8963 32.0036C40.9451 30.7688 40.9744 29.7845 40.9844 29.0509C40.9944 28.3173 40.9944 27.2411 40.9844 25.8222C40.9744 24.4033 40.9694 23.6234 40.9694 23.4824C40.9694 23.3414 40.9744 22.5615 40.9844 21.1426C40.9944 19.7237 40.9944 18.6474 40.9844 17.9138C40.9744 17.1802 40.9451 16.196 40.8963 14.9611C40.8588 13.8157 40.7501 12.729 40.5776 11.6658L40.5964 11.8087C40.4774 11.0324 40.2872 10.2698 40.0283 9.53158L40.0546 9.61577C39.6702 8.6172 39.0983 7.70912 38.3726 6.94508C37.6469 6.18105 36.782 5.57653 35.829 5.16718L35.7784 5.1476C35.1198 4.89628 34.4401 4.7101 33.7481 4.59153L33.6788 4.58174C32.6943 4.40767 31.6997 4.30366 30.7018 4.27041L30.6624 4.26846C29.4801 4.21755 28.5377 4.18687 27.8354 4.17643C27.133 4.16599 26.1025 4.16599 24.744 4.17643L22.5169 4.22146ZM45 23.5C45 28.1705 44.95 31.4032 44.85 33.198C44.9386 35.017 44.6604 36.8351 44.0332 38.5345C43.406 40.2339 42.444 41.7768 41.2095 43.0631C39.9749 44.3494 38.4954 45.3504 36.8667 46.0013C35.2381 46.6522 33.4967 46.9384 31.7553 46.8414L31.7853 46.8434C30.0669 46.9478 26.9718 47 22.5 47C18.0282 47 14.9331 46.9478 13.2147 46.8434C11.4731 46.9359 9.73238 46.6453 8.10526 45.9902C6.47814 45.3352 5.00094 44.3304 3.76938 43.041C2.53783 41.7516 1.57941 40.2063 0.956223 38.5052C0.333036 36.8042 0.0589925 34.9854 0.15185 33.1667L0.149975 33.198C0.0499917 31.4032 0 28.1705 0 23.5C0 18.8295 0.0499917 15.5968 0.149975 13.802C0.0613612 11.983 0.339648 10.1649 0.966801 8.46549C1.59395 6.76605 2.55598 5.2232 3.79054 3.93691C5.02509 2.65062 6.50463 1.6496 8.13328 0.998721C9.76193 0.347838 11.5033 0.0616144 13.2447 0.158599L13.2147 0.156641C14.9331 0.0522135 18.0282 0 22.5 0C26.9718 0 30.0669 0.0522135 31.7853 0.156641C33.5269 0.0640884 35.2676 0.354743 36.8947 1.00977C38.5219 1.6648 39.9991 2.66958 41.2306 3.959C42.4622 5.24843 43.4206 6.79373 44.0438 8.49476C44.667 10.1958 44.941 12.0146 44.8482 13.8333L44.85 13.802C44.95 15.5955 45 18.8282 45 23.5Z" fill="white"/>
</g>
<defs>
<clipPath id="clip0_1_745">
<rect width="45" height="47" fill="white"/>
</clipPath>
</defs>
</svg>
