<svg width="172" height="132" viewBox="0 0 172 132" fill="none" xmlns="http://www.w3.org/2000/svg">
<path d="M72.8984 7.24402V124.756L120.602 113.774V18.2266L72.8984 7.24402ZM126.628 14.174L126.648 14.7739V22.4297H132.023V14.1797L126.628 14.174ZM39.9766 14.1797V44.4134H46.0234V18.8203H66.8516V14.1797H39.9766ZM126.648 27.0703V31.1953H132.023V27.0703H126.648ZM126.648 35.8359V96.6797H132.023V35.8359H126.648ZM46.0234 50.9765V60.0703H13.7734V71.9297H46.0234V81.0235L65.5995 66L46.0234 50.9765ZM81.9688 59.8125C84.195 59.8125 86 62.5827 86 66C86 69.4173 84.195 72.1875 81.9688 72.1875C79.7425 72.1875 77.9375 69.4173 77.9375 66C77.9375 62.5827 79.7425 59.8125 81.9688 59.8125ZM46.0234 87.5866H39.9766V115.5H46.0234V87.5866ZM126.648 101.32V104.93H132.023V101.32H126.648ZM126.648 109.57V115.5H132.023V109.57H126.648ZM10.75 121.43V126.07H66.8516V121.43H10.75ZM108.391 121.43L88.2347 126.07H161.25V121.43H108.391Z" fill="white"/>
</svg>
