<svg width="79" height="67" viewBox="0 0 79 67" fill="none" xmlns="http://www.w3.org/2000/svg">
<path d="M54.9186 45.1366L59.287 40.9497C59.9696 40.2955 61.1572 40.7535 61.1572 41.6955V60.7197C61.1572 64.1869 58.2222 67 54.6047 67H6.55256C2.935 67 0 64.1869 0 60.7197V14.6639C0 11.1967 2.935 8.38359 6.55256 8.38359H43.8885C44.8577 8.38359 45.3492 9.50881 44.6666 10.1761L40.2983 14.363C40.0935 14.5592 39.8205 14.6639 39.5201 14.6639H6.55256V60.7197H54.6047V45.8693C54.6047 45.5945 54.7139 45.3329 54.9186 45.1366ZM76.2964 18.733L40.4484 53.0917L28.1078 54.4001C24.5312 54.7795 21.4869 51.888 21.8828 48.4338L23.2479 36.6058L59.0959 2.24718C62.222 -0.74906 67.273 -0.74906 70.3854 2.24718L76.2827 7.89948C79.4088 10.8957 79.4089 15.7499 76.2964 18.733ZM62.809 22.776L54.8777 15.1742L29.5138 39.4974L28.5173 48.0413L37.4315 47.0861L62.809 22.776ZM71.655 12.348L65.7577 6.69575C65.198 6.1593 64.2834 6.1593 63.7373 6.69575L59.5191 10.7387L67.4504 18.3405L71.6686 14.2976C72.2147 13.748 72.2147 12.8845 71.655 12.348Z" fill="#394185"/>
</svg>
