<svg width="72" height="53" viewBox="0 0 72 53" fill="none" xmlns="http://www.w3.org/2000/svg">
<path d="M24.0985 11.4918V15.8016H15.2659V43.8152H56.485V15.8016H47.6523V11.4918H56.485C58.0467 11.4918 59.5444 11.9459 60.6487 12.7541C61.753 13.5624 62.3734 14.6586 62.3734 15.8016V43.8152C62.3734 44.9582 61.753 46.0544 60.6487 46.8627C59.5444 47.6709 58.0467 48.125 56.485 48.125H15.2659C13.7042 48.125 12.2064 47.6709 11.1021 46.8627C9.99783 46.0544 9.37744 44.9582 9.37744 43.8152V15.8016C9.37744 14.6586 9.99783 13.5624 11.1021 12.7541C12.2064 11.9459 13.7042 11.4918 15.2659 11.4918H24.0985ZM35.8754 5.02716C36.6563 5.02716 37.4052 5.25419 37.9573 5.65831C38.5095 6.06243 38.8197 6.61054 38.8197 7.18205V30.5152L44.2017 26.5761C44.475 26.3759 44.7996 26.217 45.1568 26.1086C45.5141 26.0002 45.897 25.9444 46.2837 25.9443C46.6704 25.9442 47.0534 25.9998 47.4107 26.108C47.768 26.2162 48.0927 26.3749 48.3663 26.575C48.6398 26.7751 48.8569 27.0126 49.005 27.2741C49.1531 27.5355 49.2294 27.8158 49.2295 28.0988C49.2297 28.3819 49.1536 28.6622 49.0058 28.9237C48.8579 29.1852 48.6411 29.4229 48.3678 29.6231L38.4752 36.8614C37.7851 37.366 36.8495 37.6495 35.874 37.6495C34.8984 37.6495 33.9628 37.366 33.2727 36.8614L23.3831 29.6231C23.1097 29.4229 22.8929 29.1852 22.7451 28.9237C22.5972 28.6622 22.5212 28.3819 22.5213 28.0988C22.5215 27.8158 22.5978 27.5355 22.7459 27.2741C22.894 27.0126 23.111 26.7751 23.3846 26.575C23.6581 26.3749 23.9828 26.2162 24.3402 26.108C24.6975 25.9998 25.0805 25.9442 25.4672 25.9443C25.8539 25.9444 26.2368 26.0002 26.594 26.1086C26.9513 26.217 27.2758 26.3759 27.5492 26.5761L32.9312 30.5152V7.18205C32.9312 6.61054 33.2414 6.06243 33.7936 5.65831C34.3457 5.25419 35.0946 5.02716 35.8754 5.02716Z" fill="#FFFBFB"/>
</svg>
