<svg width="42" height="40" viewBox="0 0 42 40" fill="none" xmlns="http://www.w3.org/2000/svg">
<g clip-path="url(#clip0_1_875)">
<rect width="42" height="40" fill="#394185"/>
<path d="M26.25 5C28.518 5 30.618 5.68333 32.3347 6.85L16.3503 22.0717C16.1831 22.2254 16.0498 22.4093 15.9581 22.6127C15.8664 22.816 15.8181 23.0347 15.8161 23.256C15.814 23.4773 15.8583 23.6968 15.9463 23.9016C16.0343 24.1064 16.1642 24.2925 16.3286 24.449C16.4929 24.6055 16.6883 24.7292 16.9033 24.813C17.1184 24.8968 17.3488 24.939 17.5812 24.9371C17.8136 24.9352 18.0432 24.8892 18.2567 24.8018C18.4702 24.7145 18.6633 24.5875 18.8247 24.4283L34.8093 9.205C36.0747 10.8967 36.7533 12.9229 36.75 15V31.6667C36.75 32.5507 36.3813 33.3986 35.7249 34.0237C35.0685 34.6488 34.1783 35 33.25 35H8.75C7.82174 35 6.9315 34.6488 6.27513 34.0237C5.61875 33.3986 5.25 32.5507 5.25 31.6667V8.33333C5.25 7.44928 5.61875 6.60143 6.27513 5.97631C6.9315 5.35119 7.82174 5 8.75 5H26.25ZM37.8997 3.905C38.2278 4.21755 38.4121 4.64139 38.4121 5.08333C38.4121 5.52527 38.2278 5.94912 37.8997 6.26167L34.8075 9.205C34.126 8.29386 33.2897 7.49737 32.333 6.84833L35.4235 3.905C35.7517 3.59255 36.1967 3.41702 36.6607 3.41702C37.1248 3.41702 37.5716 3.59255 37.8997 3.905Z" fill="white"/>
</g>
<defs>
<clipPath id="clip0_1_875">
<rect width="42" height="40" fill="white"/>
</clipPath>
</defs>
</svg>
