<svg width="56" height="47" viewBox="0 0 56 47" fill="none" xmlns="http://www.w3.org/2000/svg">
<path d="M21 33.2917V35.25C21 36.8081 21.7375 38.3025 23.0502 39.4043C24.363 40.506 26.1435 41.125 28 41.125C29.8565 41.125 31.637 40.506 32.9497 39.4043C34.2625 38.3025 35 36.8081 35 35.25V33.2917M23.3333 9.79167C23.3333 8.7529 23.825 7.75668 24.7001 7.02216C25.5753 6.28765 26.7623 5.875 28 5.875C29.2377 5.875 30.4246 6.28765 31.2998 7.02216C32.175 7.75668 32.6666 8.7529 32.6666 9.79167C35.3463 10.8551 37.6306 12.5105 39.2748 14.5804C40.9189 16.6503 41.861 19.0567 42 21.5417V27.4167C42.1756 28.6342 42.6893 29.8001 43.4999 30.8205C44.3104 31.8409 45.3951 32.6874 46.6666 33.2917H9.33331C10.6048 32.6874 11.6895 31.8409 12.5001 30.8205C13.3106 29.8001 13.8244 28.6342 14 27.4167V21.5417C14.139 19.0567 15.081 16.6503 16.7252 14.5804C18.3694 12.5105 20.6537 10.8551 23.3333 9.79167Z" stroke="#04011F" stroke-width="2" stroke-linecap="round" stroke-linejoin="round"/>
</svg>
