<svg width="84" height="51" viewBox="0 0 84 51" fill="none" xmlns="http://www.w3.org/2000/svg">
<path d="M0 0H84V6.375H0V0ZM0 44.625H84V51H0V44.625ZM71.1022 34.7884L70.4378 32.0152H62.9962L61.8125 34.7661L55.8485 34.7788C59.6858 27.1065 62.5304 21.4232 64.386 17.7257C64.8709 16.7631 65.7338 16.2722 67.0015 16.2786C67.9713 16.2849 69.5558 16.2849 71.7551 16.2786L76.3636 34.782L71.1022 34.7884ZM64.6724 28.2158H69.468L67.6735 21.267L64.6724 28.2158ZM26.2385 16.2754L32.2331 16.2817L22.9664 34.7884L16.8955 34.7852C14.8451 28.1871 13.3369 23.2911 12.3747 20.1067C12.0807 19.1282 11.4965 18.4461 10.3664 18.1241C9.36218 17.8372 7.68982 17.391 5.34545 16.7886V16.2786H14.9253C16.5824 16.2786 17.5484 16.9479 17.8615 18.3186L20.2287 28.8022L26.2385 16.2754ZM40.4689 16.2817L35.7344 34.7852L30.0262 34.7788L34.7607 16.2754L40.4689 16.2817ZM52.0456 15.9375C53.7485 15.9375 55.902 16.3774 57.1391 16.7886L56.1387 20.6263C55.02 20.2502 53.1796 19.7434 51.6333 19.7657C49.3805 19.7944 47.9907 20.5817 47.9907 21.3371C47.9907 22.5611 50.4038 23.1795 52.8933 24.5214C55.7302 26.0514 56.1005 27.4221 56.07 28.9138C56.028 32.0089 52.8933 35.0625 46.2764 35.0625C43.2562 35.0243 42.168 34.8139 39.7091 34.0871L40.7476 30.0836C43.2524 30.957 44.3176 31.2343 46.4558 31.2343C48.4222 31.2343 50.106 30.5745 50.1213 29.4238C50.1289 28.6046 49.5295 28.1998 47.3264 27.1862C45.1233 26.1758 42.0344 24.7764 42.0764 21.9587C42.126 18.3568 46.2305 15.9375 52.0456 15.9375Z" fill="white"/>
</svg>
