<svg width="40" height="38" viewBox="0 0 40 38" fill="none" xmlns="http://www.w3.org/2000/svg">
<path d="M12.6667 28.4167V30.375C12.6667 31.9331 13.4042 33.4275 14.7169 34.5293C16.0297 35.631 17.8102 36.25 19.6667 36.25C21.5232 36.25 23.3037 35.631 24.6164 34.5293C25.9292 33.4275 26.6667 31.9331 26.6667 30.375V28.4167M15 4.91667C15 3.8779 15.4917 2.88168 16.3668 2.14716C17.242 1.41265 18.429 1 19.6667 1C20.9043 1 22.0913 1.41265 22.9665 2.14716C23.8417 2.88168 24.3333 3.8779 24.3333 4.91667C27.013 5.9801 29.2973 7.63547 30.9415 9.70538C32.5856 11.7753 33.5277 14.1817 33.6667 16.6667V22.5417C33.8423 23.7592 34.356 24.9251 35.1666 25.9455C35.9771 26.9659 37.0618 27.8124 38.3333 28.4167H1C2.27152 27.8124 3.35622 26.9659 4.16677 25.9455C4.97732 24.9251 5.49107 23.7592 5.66667 22.5417V16.6667C5.80564 14.1817 6.7477 11.7753 8.39188 9.70538C10.0361 7.63547 12.3204 5.9801 15 4.91667Z" stroke="#04011F" stroke-width="2" stroke-linecap="round" stroke-linejoin="round"/>
</svg>
