<svg width="53" height="49" viewBox="0 0 53 49" fill="none" xmlns="http://www.w3.org/2000/svg">
<path d="M0 49H53V40.25C52.9944 37.0022 51.0382 33.8886 47.5606 31.592C44.083 29.2955 39.368 28.0037 34.45 28H18.55C13.632 28.0037 8.91695 29.2955 5.43937 31.592C1.96178 33.8886 0.00561101 37.0022 0 40.25V49ZM7.95 12.25C7.95 14.6728 9.03794 17.0412 11.0762 19.0557C13.1145 21.0702 16.0117 22.6404 19.4012 23.5675C22.7908 24.4947 26.5206 24.7373 30.1189 24.2646C33.7173 23.792 37.0226 22.6252 39.6168 20.9121C42.2111 19.1989 43.9778 17.0161 44.6936 14.6399C45.4093 12.2636 45.042 9.80052 43.638 7.56213C42.234 5.32373 39.8564 3.41054 36.8058 2.0645C33.7553 0.71845 30.1688 0 26.5 0C21.5802 0 16.862 1.29062 13.3832 3.58794C9.90437 5.88526 7.95 9.0011 7.95 12.25Z" fill="#04011F"/>
</svg>
