<svg width="56" height="47" viewBox="0 0 56 47" fill="none" xmlns="http://www.w3.org/2000/svg">
<path d="M0 47H56V38.6071C55.9941 35.4919 53.9272 32.5053 50.2527 30.3026C46.5783 28.0998 41.5964 26.8607 36.4 26.8571H19.6C14.4036 26.8607 9.42168 28.0998 5.74726 30.3026C2.07283 32.5053 0.00592861 35.4919 0 38.6071V47ZM8.4 11.75C8.4 14.0739 9.54952 16.3457 11.7032 18.278C13.8569 20.2102 16.918 21.7163 20.4994 22.6056C24.0808 23.4949 28.0217 23.7276 31.8238 23.2742C35.6258 22.8209 39.1182 21.7018 41.8593 20.0585C44.6004 18.4152 46.4671 16.3216 47.2234 14.0423C47.9797 11.763 47.5915 9.4005 46.108 7.25347C44.6246 5.10644 42.1124 3.27134 38.8892 1.98023C35.666 0.689126 31.8765 0 28 0C22.8018 0 17.8164 1.23794 14.1407 3.4415C10.465 5.64505 8.4 8.63371 8.4 11.75Z" fill="#04011F"/>
</svg>
