<svg width="69" height="53" viewBox="0 0 69 53" fill="none" xmlns="http://www.w3.org/2000/svg">
<path d="M0 44.5682C0 46.8044 0.908703 48.9491 2.5262 50.5304C4.1437 52.1117 6.33751 53 8.625 53H60.375C62.6625 53 64.8563 52.1117 66.4738 50.5304C68.0913 48.9491 69 46.8044 69 44.5682V21.3807H0V44.5682ZM10.1652 33.125C10.1652 31.927 10.652 30.7781 11.5185 29.931C12.385 29.0839 13.5603 28.608 14.7857 28.608H22.1786C23.404 28.608 24.5793 29.0839 25.4458 29.931C26.3123 30.7781 26.7991 31.927 26.7991 33.125V36.1364C26.7991 37.3344 26.3123 38.4833 25.4458 39.3304C24.5793 40.1775 23.404 40.6534 22.1786 40.6534H14.7857C13.5603 40.6534 12.385 40.1775 11.5185 39.3304C10.652 38.4833 10.1652 37.3344 10.1652 36.1364V33.125ZM60.375 0H8.625C6.33751 0 4.1437 0.88835 2.5262 2.46962C0.908703 4.0509 0 6.19556 0 8.43182V12.3466H69V8.43182C69 6.19556 68.0913 4.0509 66.4738 2.46962C64.8563 0.88835 62.6625 0 60.375 0Z" fill="white"/>
</svg>
